<mxfile host="65bd71144e">
    <diagram id="rvpxrM93dN4rDlb6J-fs" name="第 1 页">
        <mxGraphModel dx="909" dy="670" grid="1" gridSize="10" guides="1" tooltips="1" connect="1" arrows="1" fold="1" page="1" pageScale="1" pageWidth="827" pageHeight="1169" math="0" shadow="0">
            <root>
                <mxCell id="0"/>
                <mxCell id="1" parent="0"/>
                <mxCell id="4" style="edgeStyle=none;html=1;exitX=1;exitY=0.5;exitDx=0;exitDy=0;entryX=0;entryY=0.5;entryDx=0;entryDy=0;fontSize=11;sketch=1;" parent="1" source="2" target="3" edge="1">
                    <mxGeometry relative="1" as="geometry"/>
                </mxCell>
                <mxCell id="2" value="单个异常项" style="rounded=0;whiteSpace=wrap;html=1;fillColor=#ffe6cc;strokeColor=#d79b00;comic=1;" parent="1" vertex="1">
                    <mxGeometry x="40" y="95" width="90" height="30" as="geometry"/>
                </mxCell>
                <mxCell id="6" value="字节码&lt;br&gt;信息" style="edgeStyle=orthogonalEdgeStyle;sketch=1;html=1;exitX=1;exitY=0.5;exitDx=0;exitDy=0;entryX=0.5;entryY=0;entryDx=0;entryDy=0;fontSize=11;" parent="1" source="3" target="5" edge="1">
                    <mxGeometry relative="1" as="geometry"/>
                </mxCell>
                <mxCell id="3" value="&lt;pre style=&quot;background-color: rgb(255 , 255 , 255) ; color: rgb(8 , 8 , 8) ; font-family: &amp;#34;consolas&amp;#34; , monospace ; font-size: 11px&quot;&gt;&lt;span style=&quot;color: #0033b3&quot;&gt;public static void &lt;/span&gt;&lt;span style=&quot;color: #795e26&quot;&gt;main&lt;/span&gt;(&lt;span style=&quot;color: #066555&quot;&gt;String&lt;/span&gt;[] args){&lt;br&gt;    &lt;span style=&quot;color: #0033b3&quot;&gt;int &lt;/span&gt;i = &lt;span style=&quot;color: #1750eb&quot;&gt;0&lt;/span&gt;;&lt;br&gt;    &lt;span style=&quot;color: #0033b3&quot;&gt;try &lt;/span&gt;{&lt;br&gt;        i = &lt;span style=&quot;color: #1750eb&quot;&gt;10&lt;/span&gt;;&lt;br&gt;    }&lt;br&gt;    &lt;span style=&quot;color: #0033b3&quot;&gt;catch &lt;/span&gt;(&lt;span style=&quot;color: #066555&quot;&gt;Exception &lt;/span&gt;e) {&lt;br&gt;        i = &lt;span style=&quot;color: #1750eb&quot;&gt;5&lt;/span&gt;;&lt;br&gt;    }&lt;br&gt;    &lt;span style=&quot;color: #066555&quot;&gt;System&lt;/span&gt;.&lt;span style=&quot;color: #871094 ; font-style: italic&quot;&gt;out&lt;/span&gt;.&lt;span style=&quot;color: #795e26&quot;&gt;println&lt;/span&gt;(i);&lt;br&gt;}&lt;/pre&gt;" style="rounded=0;whiteSpace=wrap;html=1;fillColor=#ffe6cc;strokeColor=#d79b00;comic=1;align=left;" parent="1" vertex="1">
                    <mxGeometry x="174" y="40" width="240" height="140" as="geometry"/>
                </mxCell>
                <mxCell id="5" value="" style="shape=image;imageAspect=0;aspect=fixed;verticalLabelPosition=bottom;verticalAlign=top;comic=1;fontSize=11;image=https://codereaper-image-bed.oss-cn-shenzhen.aliyuncs.com/img/image-20220825165833154.png;imageBorder=default;sketch=1;" parent="1" vertex="1">
                    <mxGeometry x="174" y="210" width="570.32" height="340" as="geometry"/>
                </mxCell>
                <mxCell id="7" value="&lt;font color=&quot;#6262fc&quot;&gt;&lt;span style=&quot;font-size: 10px&quot;&gt;try块&lt;/span&gt;&lt;/font&gt;" style="rounded=0;whiteSpace=wrap;html=1;fillColor=none;strokeColor=none;comic=1;align=left;sketch=1;" parent="1" vertex="1">
                    <mxGeometry x="360" y="343" width="40" height="20" as="geometry"/>
                </mxCell>
                <mxCell id="17" style="edgeStyle=none;sketch=1;html=1;exitX=0.5;exitY=1;exitDx=0;exitDy=0;entryX=0.5;entryY=0;entryDx=0;entryDy=0;fontSize=11;" parent="1" source="8" target="14" edge="1">
                    <mxGeometry relative="1" as="geometry"/>
                </mxCell>
                <mxCell id="8" value="" style="rounded=0;whiteSpace=wrap;html=1;fillColor=none;strokeColor=#b85450;comic=0;align=left;sketch=0;" parent="1" vertex="1">
                    <mxGeometry x="200" y="500" width="290" height="50" as="geometry"/>
                </mxCell>
                <mxCell id="10" value="&lt;font color=&quot;#6262fc&quot;&gt;&lt;span style=&quot;font-size: 10px&quot;&gt;异常表&lt;/span&gt;&lt;/font&gt;" style="rounded=0;whiteSpace=wrap;html=1;fillColor=none;strokeColor=none;comic=1;align=left;sketch=1;" parent="1" vertex="1">
                    <mxGeometry x="500" y="515" width="40" height="20" as="geometry"/>
                </mxCell>
                <mxCell id="11" value="" style="rounded=0;whiteSpace=wrap;html=1;fillColor=none;strokeColor=#b85450;comic=0;align=left;sketch=0;" parent="1" vertex="1">
                    <mxGeometry x="210" y="328" width="140" height="50" as="geometry"/>
                </mxCell>
                <mxCell id="12" value="" style="rounded=0;whiteSpace=wrap;html=1;fillColor=none;strokeColor=#b85450;comic=0;align=left;sketch=0;" parent="1" vertex="1">
                    <mxGeometry x="210" y="378" width="140" height="52" as="geometry"/>
                </mxCell>
                <mxCell id="13" value="&lt;font color=&quot;#6262fc&quot;&gt;&lt;span style=&quot;font-size: 10px&quot;&gt;catch块&lt;br&gt;astore_2是将异常对象放到局部变量表中&lt;br&gt;&lt;/span&gt;&lt;/font&gt;" style="rounded=0;whiteSpace=wrap;html=1;fillColor=none;strokeColor=none;comic=1;align=left;sketch=1;" parent="1" vertex="1">
                    <mxGeometry x="360" y="378" width="110" height="52" as="geometry"/>
                </mxCell>
                <mxCell id="16" value="异常匹配" style="sketch=1;html=1;exitX=1;exitY=0.5;exitDx=0;exitDy=0;entryX=0;entryY=0.5;entryDx=0;entryDy=0;fontSize=11;" parent="1" source="14" target="15" edge="1">
                    <mxGeometry relative="1" as="geometry"/>
                </mxCell>
                <mxCell id="14" value="&lt;div style=&quot;text-align: left&quot;&gt;&lt;span&gt;异常表的每一项包含的内容有：&lt;/span&gt;&lt;/div&gt;&lt;div style=&quot;text-align: left&quot;&gt;&lt;span&gt;① [from, to) 异常检测区间&lt;/span&gt;&lt;/div&gt;&lt;div style=&quot;text-align: left&quot;&gt;&lt;span&gt;② 异常类型&lt;/span&gt;&lt;/div&gt;&lt;div style=&quot;text-align: left&quot;&gt;&lt;span&gt;③ 异常处理代码的行号(catch地址)&lt;/span&gt;&lt;/div&gt;" style="rounded=0;whiteSpace=wrap;html=1;fillColor=#ffe6cc;strokeColor=#d79b00;comic=1;sketch=1;" parent="1" vertex="1">
                    <mxGeometry x="180" y="655" width="200" height="70" as="geometry"/>
                </mxCell>
                <mxCell id="15" value="&lt;div style=&quot;text-align: left&quot;&gt;&lt;br&gt;&lt;/div&gt;" style="rounded=0;whiteSpace=wrap;html=1;fillColor=#dae8fc;strokeColor=#6c8ebf;comic=1;sketch=0;" parent="1" vertex="1">
                    <mxGeometry x="450" y="560" width="290" height="260" as="geometry"/>
                </mxCell>
                <mxCell id="20" style="edgeStyle=none;sketch=1;html=1;exitX=0.5;exitY=1;exitDx=0;exitDy=0;entryX=0.5;entryY=0;entryDx=0;entryDy=0;fontSize=11;" parent="1" source="18" target="19" edge="1">
                    <mxGeometry relative="1" as="geometry"/>
                </mxCell>
                <mxCell id="18" value="&lt;div style=&quot;text-align: left&quot;&gt;当前执行代码出现异常&lt;/div&gt;" style="rounded=0;whiteSpace=wrap;html=1;comic=1;sketch=0;" parent="1" vertex="1">
                    <mxGeometry x="480" y="570" width="130" height="30" as="geometry"/>
                </mxCell>
                <mxCell id="22" style="edgeStyle=none;sketch=1;html=1;exitX=0.5;exitY=1;exitDx=0;exitDy=0;entryX=0.5;entryY=0;entryDx=0;entryDy=0;fontSize=11;" parent="1" source="19" target="21" edge="1">
                    <mxGeometry relative="1" as="geometry"/>
                </mxCell>
                <mxCell id="19" value="&lt;div style=&quot;text-align: left&quot;&gt;查询异常表，获得当前出现异常行匹配的表项&lt;/div&gt;&lt;div style=&quot;text-align: left&quot;&gt;(筛选出from和to匹配的项)&lt;/div&gt;" style="rounded=0;whiteSpace=wrap;html=1;comic=1;sketch=0;" parent="1" vertex="1">
                    <mxGeometry x="472.5" y="625" width="145" height="55" as="geometry"/>
                </mxCell>
                <mxCell id="24" value="能找到" style="edgeStyle=none;sketch=1;html=1;exitX=0.5;exitY=1;exitDx=0;exitDy=0;entryX=0.5;entryY=0;entryDx=0;entryDy=0;fontSize=11;" parent="1" source="21" target="23" edge="1">
                    <mxGeometry x="-0.3333" relative="1" as="geometry">
                        <mxPoint as="offset"/>
                    </mxGeometry>
                </mxCell>
                <mxCell id="26" value="找不到匹配&lt;br&gt;的异常" style="edgeStyle=orthogonalEdgeStyle;sketch=1;html=1;exitX=1;exitY=0.5;exitDx=0;exitDy=0;entryX=0.5;entryY=0;entryDx=0;entryDy=0;fontSize=11;" parent="1" source="21" target="25" edge="1">
                    <mxGeometry relative="1" as="geometry"/>
                </mxCell>
                <mxCell id="21" value="&lt;div&gt;从上到下寻找&lt;b&gt;异常类型匹配项&lt;/b&gt;&lt;/div&gt;" style="rounded=0;whiteSpace=wrap;html=1;comic=1;sketch=0;align=center;" parent="1" vertex="1">
                    <mxGeometry x="495" y="700" width="100" height="40" as="geometry"/>
                </mxCell>
                <mxCell id="23" value="&lt;div&gt;跳转到对应的catch块进行异常处理&lt;/div&gt;" style="rounded=0;whiteSpace=wrap;html=1;comic=1;sketch=0;align=center;fillColor=#f8cecc;strokeColor=#b85450;" parent="1" vertex="1">
                    <mxGeometry x="492.5" y="770" width="105" height="40" as="geometry"/>
                </mxCell>
                <mxCell id="25" value="&lt;div&gt;抛出异常交给&lt;/div&gt;&lt;div&gt;jvm处理&lt;/div&gt;" style="rounded=0;whiteSpace=wrap;html=1;comic=1;sketch=0;align=center;fillColor=#f8cecc;strokeColor=#b85450;" parent="1" vertex="1">
                    <mxGeometry x="630" y="770" width="90" height="40" as="geometry"/>
                </mxCell>
                <mxCell id="29" style="edgeStyle=orthogonalEdgeStyle;sketch=1;html=1;exitX=1;exitY=0.5;exitDx=0;exitDy=0;entryX=0;entryY=0.5;entryDx=0;entryDy=0;fontSize=11;" parent="1" source="27" target="28" edge="1">
                    <mxGeometry relative="1" as="geometry"/>
                </mxCell>
                <mxCell id="27" value="多个异常项" style="rounded=0;whiteSpace=wrap;html=1;fillColor=#ffe6cc;strokeColor=#d79b00;comic=1;" parent="1" vertex="1">
                    <mxGeometry x="40" y="880" width="90" height="30" as="geometry"/>
                </mxCell>
                <mxCell id="31" value="字节码信息" style="edgeStyle=orthogonalEdgeStyle;sketch=1;html=1;exitX=1;exitY=0.5;exitDx=0;exitDy=0;entryX=0.5;entryY=0;entryDx=0;entryDy=0;fontSize=11;" parent="1" source="28" target="30" edge="1">
                    <mxGeometry relative="1" as="geometry"/>
                </mxCell>
                <mxCell id="28" value="&lt;pre style=&quot;background-color: rgb(255 , 255 , 255) ; color: rgb(8 , 8 , 8) ; font-family: &amp;#34;consolas&amp;#34; , monospace ; font-size: 11px&quot;&gt;&lt;pre style=&quot;font-family: &amp;#34;consolas&amp;#34; , monospace&quot;&gt;&lt;span style=&quot;color: #0033b3&quot;&gt;public static void &lt;/span&gt;&lt;span style=&quot;color: #795e26&quot;&gt;main&lt;/span&gt;(&lt;span style=&quot;color: #066555&quot;&gt;String&lt;/span&gt;[] args){&lt;br&gt;    &lt;span style=&quot;color: #0033b3&quot;&gt;int &lt;/span&gt;i = &lt;span style=&quot;color: #1750eb&quot;&gt;0&lt;/span&gt;;&lt;br&gt;    &lt;span style=&quot;color: #0033b3&quot;&gt;try &lt;/span&gt;{&lt;br&gt;        i = &lt;span style=&quot;color: #1750eb&quot;&gt;10&lt;/span&gt;;&lt;br&gt;    }&lt;br&gt;    &lt;span style=&quot;color: #0033b3&quot;&gt;catch &lt;/span&gt;(&lt;span style=&quot;color: #066555&quot;&gt;ArithmeticException &lt;/span&gt;e) {&lt;br&gt;        i = &lt;span style=&quot;color: #1750eb&quot;&gt;20&lt;/span&gt;;&lt;br&gt;    }&lt;br&gt;    &lt;span style=&quot;color: #0033b3&quot;&gt;catch &lt;/span&gt;(&lt;span style=&quot;color: #066555&quot;&gt;NullPointerException &lt;/span&gt;e) {&lt;br&gt;        i = &lt;span style=&quot;color: #1750eb&quot;&gt;30&lt;/span&gt;;&lt;br&gt;    }&lt;br&gt;    &lt;span style=&quot;color: #0033b3&quot;&gt;catch &lt;/span&gt;(&lt;span style=&quot;color: #066555&quot;&gt;Exception &lt;/span&gt;e) {&lt;br&gt;        i = &lt;span style=&quot;color: #1750eb&quot;&gt;40&lt;/span&gt;;&lt;br&gt;    }&lt;br&gt;    &lt;span style=&quot;color: #066555&quot;&gt;System&lt;/span&gt;.&lt;span style=&quot;color: #871094 ; font-style: italic&quot;&gt;out&lt;/span&gt;.&lt;span style=&quot;color: #795e26&quot;&gt;println&lt;/span&gt;(i);&lt;br&gt;}&lt;/pre&gt;&lt;/pre&gt;" style="rounded=0;whiteSpace=wrap;html=1;fillColor=#ffe6cc;strokeColor=#d79b00;comic=1;align=left;" parent="1" vertex="1">
                    <mxGeometry x="174" y="835" width="240" height="215" as="geometry"/>
                </mxCell>
                <mxCell id="30" value="" style="shape=image;imageAspect=0;aspect=fixed;verticalLabelPosition=bottom;verticalAlign=top;comic=0;sketch=1;fontSize=11;fillColor=none;image=https://codereaper-image-bed.oss-cn-shenzhen.aliyuncs.com/img/image-20220825172457192.png;imageBorder=default;" parent="1" vertex="1">
                    <mxGeometry x="174" y="1070" width="556.33" height="490" as="geometry"/>
                </mxCell>
                <mxCell id="32" value="&lt;font color=&quot;#6262fc&quot;&gt;&lt;span style=&quot;font-size: 10px&quot;&gt;try块&lt;/span&gt;&lt;/font&gt;" style="rounded=0;whiteSpace=wrap;html=1;fillColor=none;strokeColor=none;comic=1;align=left;sketch=1;" parent="1" vertex="1">
                    <mxGeometry x="374" y="1200" width="40" height="20" as="geometry"/>
                </mxCell>
                <mxCell id="33" value="" style="rounded=0;whiteSpace=wrap;html=1;fillColor=none;strokeColor=#b85450;comic=0;align=left;sketch=0;" parent="1" vertex="1">
                    <mxGeometry x="210" y="1480" width="340" height="80" as="geometry"/>
                </mxCell>
                <mxCell id="34" value="&lt;font color=&quot;#6262fc&quot;&gt;&lt;span style=&quot;font-size: 10px&quot;&gt;异常表&lt;/span&gt;&lt;/font&gt;" style="rounded=0;whiteSpace=wrap;html=1;fillColor=none;strokeColor=none;comic=1;align=left;sketch=1;" parent="1" vertex="1">
                    <mxGeometry x="557.5" y="1500" width="40" height="20" as="geometry"/>
                </mxCell>
                <mxCell id="35" value="" style="rounded=0;whiteSpace=wrap;html=1;fillColor=none;strokeColor=#b85450;comic=0;align=left;sketch=0;" parent="1" vertex="1">
                    <mxGeometry x="221" y="1185" width="140" height="50" as="geometry"/>
                </mxCell>
                <mxCell id="36" value="" style="rounded=0;whiteSpace=wrap;html=1;fillColor=none;strokeColor=#b85450;comic=0;align=left;sketch=0;" parent="1" vertex="1">
                    <mxGeometry x="221" y="1235" width="140" height="63" as="geometry"/>
                </mxCell>
                <mxCell id="37" value="&lt;font color=&quot;#6262fc&quot;&gt;&lt;span style=&quot;font-size: 10px&quot;&gt;catch块1&lt;br&gt;astore_2是将异常对象放到局部变量表中&lt;br&gt;&lt;/span&gt;&lt;/font&gt;" style="rounded=0;whiteSpace=wrap;html=1;fillColor=none;strokeColor=none;comic=1;align=left;sketch=1;" parent="1" vertex="1">
                    <mxGeometry x="370" y="1232" width="110" height="52" as="geometry"/>
                </mxCell>
                <mxCell id="41" value="" style="rounded=0;whiteSpace=wrap;html=1;fillColor=none;strokeColor=#b85450;comic=0;align=left;sketch=0;" parent="1" vertex="1">
                    <mxGeometry x="221" y="1298" width="140" height="65" as="geometry"/>
                </mxCell>
                <mxCell id="42" value="&lt;font color=&quot;#6262fc&quot;&gt;&lt;span style=&quot;font-size: 10px&quot;&gt;catch块2&lt;br&gt;&lt;/span&gt;&lt;/font&gt;" style="rounded=0;whiteSpace=wrap;html=1;fillColor=none;strokeColor=none;comic=1;align=left;sketch=1;" parent="1" vertex="1">
                    <mxGeometry x="370" y="1311" width="60" height="19" as="geometry"/>
                </mxCell>
                <mxCell id="43" value="" style="rounded=0;whiteSpace=wrap;html=1;fillColor=none;strokeColor=#b85450;comic=0;align=left;sketch=0;" parent="1" vertex="1">
                    <mxGeometry x="221" y="1363" width="140" height="50" as="geometry"/>
                </mxCell>
                <mxCell id="44" value="&lt;font color=&quot;#6262fc&quot;&gt;&lt;span style=&quot;font-size: 10px&quot;&gt;catch块3&lt;br&gt;&lt;/span&gt;&lt;/font&gt;" style="rounded=0;whiteSpace=wrap;html=1;fillColor=none;strokeColor=none;comic=1;align=left;sketch=1;" parent="1" vertex="1">
                    <mxGeometry x="370" y="1370" width="60" height="19" as="geometry"/>
                </mxCell>
                <mxCell id="45" value="&lt;div style=&quot;text-align: left&quot;&gt;可以看到，多个异常项时只是异常表中多了几个表项，&lt;b&gt;每个表项&lt;/b&gt;分别对应&lt;b&gt;一个catch的异常类型以及跳转地址&lt;/b&gt;&lt;/div&gt;" style="rounded=0;whiteSpace=wrap;html=1;fillColor=#dae8fc;strokeColor=#6c8ebf;comic=1;sketch=1;" parent="1" vertex="1">
                    <mxGeometry x="490" y="1000" width="200" height="60" as="geometry"/>
                </mxCell>
                <mxCell id="49" style="edgeStyle=none;html=1;exitX=1;exitY=0.5;exitDx=0;exitDy=0;entryX=0;entryY=0.5;entryDx=0;entryDy=0;fontSize=11;sketch=1;" edge="1" parent="1" source="46" target="48">
                    <mxGeometry relative="1" as="geometry"/>
                </mxCell>
                <mxCell id="46" value="finally情况" style="rounded=0;whiteSpace=wrap;html=1;fillColor=#ffe6cc;strokeColor=#d79b00;comic=1;" vertex="1" parent="1">
                    <mxGeometry x="40" y="1680" width="90" height="30" as="geometry"/>
                </mxCell>
                <mxCell id="47" value="" style="shape=image;imageAspect=0;aspect=fixed;verticalLabelPosition=bottom;verticalAlign=top;image=https://codereaper-image-bed.oss-cn-shenzhen.aliyuncs.com/img/image-20220826051630064.png;imageBorder=default;sketch=1;" vertex="1" parent="1">
                    <mxGeometry x="260" y="1783.43" width="550.33" height="536.57" as="geometry"/>
                </mxCell>
                <mxCell id="50" value="字节码信息" style="edgeStyle=orthogonalEdgeStyle;sketch=1;html=1;exitX=1;exitY=0.5;exitDx=0;exitDy=0;entryX=0.5;entryY=0;entryDx=0;entryDy=0;fontSize=11;" edge="1" parent="1" source="48" target="47">
                    <mxGeometry relative="1" as="geometry"/>
                </mxCell>
                <mxCell id="48" value="&lt;pre style=&quot;background-color: rgb(255 , 255 , 255) ; color: rgb(8 , 8 , 8) ; font-family: &amp;#34;consolas&amp;#34; , monospace ; font-size: 11px&quot;&gt;&lt;span style=&quot;color: #0033b3&quot;&gt;public static void &lt;/span&gt;&lt;span style=&quot;color: #795e26&quot;&gt;main&lt;/span&gt;(&lt;span style=&quot;color: #066555&quot;&gt;String&lt;/span&gt;[] args){&lt;br&gt;    &lt;span style=&quot;color: #0033b3&quot;&gt;int &lt;/span&gt;i = &lt;span style=&quot;color: #1750eb&quot;&gt;0&lt;/span&gt;;&lt;br&gt;    &lt;span style=&quot;color: #0033b3&quot;&gt;try &lt;/span&gt;{&lt;br&gt;        i = &lt;span style=&quot;color: #1750eb&quot;&gt;10&lt;/span&gt;;&lt;br&gt;    } &lt;span style=&quot;color: #0033b3&quot;&gt;catch &lt;/span&gt;(&lt;span style=&quot;color: #066555&quot;&gt;Exception &lt;/span&gt;e) {&lt;br&gt;        i = &lt;span style=&quot;color: #1750eb&quot;&gt;20&lt;/span&gt;;&lt;br&gt;    } &lt;span style=&quot;color: #0033b3&quot;&gt;finally &lt;/span&gt;{&lt;br&gt;        i = &lt;span style=&quot;color: #1750eb&quot;&gt;30&lt;/span&gt;;&lt;br&gt;    }&lt;br&gt;    &lt;span style=&quot;color: #066555&quot;&gt;System&lt;/span&gt;.&lt;span style=&quot;color: #871094 ; font-style: italic&quot;&gt;out&lt;/span&gt;.&lt;span style=&quot;color: #795e26&quot;&gt;println&lt;/span&gt;(i);&lt;br&gt;}&lt;/pre&gt;" style="rounded=0;whiteSpace=wrap;html=1;fillColor=#ffe6cc;strokeColor=#d79b00;comic=1;align=left;" vertex="1" parent="1">
                    <mxGeometry x="180" y="1620" width="239" height="150" as="geometry"/>
                </mxCell>
                <mxCell id="52" value="&lt;font color=&quot;#6262fc&quot;&gt;&lt;span style=&quot;font-size: 10px&quot;&gt;try块&lt;/span&gt;&lt;/font&gt;" style="rounded=0;whiteSpace=wrap;html=1;fillColor=none;strokeColor=none;comic=1;align=left;sketch=1;" vertex="1" parent="1">
                    <mxGeometry x="430" y="1901" width="40" height="20" as="geometry"/>
                </mxCell>
                <mxCell id="53" value="" style="rounded=0;whiteSpace=wrap;html=1;fillColor=none;strokeColor=#b85450;comic=0;align=left;sketch=0;strokeWidth=1;" vertex="1" parent="1">
                    <mxGeometry x="282" y="1900" width="140" height="83" as="geometry"/>
                </mxCell>
                <mxCell id="54" value="" style="rounded=0;whiteSpace=wrap;html=1;fillColor=none;strokeColor=#b85450;comic=0;align=left;sketch=0;strokeWidth=1;" vertex="1" parent="1">
                    <mxGeometry x="282" y="1985" width="140" height="99" as="geometry"/>
                </mxCell>
                <mxCell id="55" value="&lt;font color=&quot;#6262fc&quot;&gt;&lt;span style=&quot;font-size: 10px&quot;&gt;catch Exception e&lt;/span&gt;&lt;/font&gt;" style="rounded=0;whiteSpace=wrap;html=1;fillColor=none;strokeColor=none;comic=1;align=left;sketch=1;" vertex="1" parent="1">
                    <mxGeometry x="430" y="1984" width="100" height="20" as="geometry"/>
                </mxCell>
                <mxCell id="56" value="" style="rounded=0;whiteSpace=wrap;html=1;fillColor=none;strokeColor=#b85450;comic=0;align=left;sketch=0;strokeWidth=1;" vertex="1" parent="1">
                    <mxGeometry x="282" y="2087" width="140" height="83" as="geometry"/>
                </mxCell>
                <mxCell id="57" value="&lt;font color=&quot;#6262fc&quot;&gt;&lt;span style=&quot;font-size: 10px&quot;&gt;catch any slot 3&lt;/span&gt;&lt;/font&gt;" style="rounded=0;whiteSpace=wrap;html=1;fillColor=none;strokeColor=none;comic=1;align=left;sketch=1;" vertex="1" parent="1">
                    <mxGeometry x="430" y="2090" width="100" height="20" as="geometry"/>
                </mxCell>
                <mxCell id="58" value="" style="rounded=0;whiteSpace=wrap;html=1;fillColor=none;strokeColor=#6c8ebf;comic=0;align=left;sketch=0;" vertex="1" parent="1">
                    <mxGeometry x="282" y="1933" width="140" height="50" as="geometry"/>
                </mxCell>
                <mxCell id="59" value="" style="rounded=0;whiteSpace=wrap;html=1;fillColor=none;strokeColor=#6c8ebf;comic=0;align=left;sketch=0;" vertex="1" parent="1">
                    <mxGeometry x="282" y="2034" width="140" height="50" as="geometry"/>
                </mxCell>
                <mxCell id="60" value="" style="rounded=0;whiteSpace=wrap;html=1;fillColor=none;strokeColor=#6c8ebf;comic=0;align=left;sketch=0;" vertex="1" parent="1">
                    <mxGeometry x="282" y="2099.5" width="140" height="50" as="geometry"/>
                </mxCell>
                <mxCell id="61" value="&lt;font color=&quot;#6262fc&quot;&gt;&lt;span style=&quot;font-size: 10px&quot;&gt;finally&lt;/span&gt;&lt;/font&gt;" style="rounded=0;whiteSpace=wrap;html=1;fillColor=none;strokeColor=none;comic=1;align=left;sketch=1;" vertex="1" parent="1">
                    <mxGeometry x="392" y="1948" width="30" height="20" as="geometry"/>
                </mxCell>
                <mxCell id="62" value="&lt;font color=&quot;#6262fc&quot;&gt;&lt;span style=&quot;font-size: 10px&quot;&gt;finally&lt;/span&gt;&lt;/font&gt;" style="rounded=0;whiteSpace=wrap;html=1;fillColor=none;strokeColor=none;comic=1;align=left;sketch=1;" vertex="1" parent="1">
                    <mxGeometry x="392" y="2049" width="30" height="20" as="geometry"/>
                </mxCell>
                <mxCell id="63" value="&lt;font color=&quot;#6262fc&quot;&gt;&lt;span style=&quot;font-size: 10px&quot;&gt;finally&lt;/span&gt;&lt;/font&gt;" style="rounded=0;whiteSpace=wrap;html=1;fillColor=none;strokeColor=none;comic=1;align=left;sketch=1;" vertex="1" parent="1">
                    <mxGeometry x="392" y="2118.5" width="30" height="20" as="geometry"/>
                </mxCell>
                <mxCell id="86" style="edgeStyle=none;sketch=1;html=1;exitX=0.5;exitY=1;exitDx=0;exitDy=0;entryX=0.5;entryY=0;entryDx=0;entryDy=0;fontSize=11;" edge="1" parent="1" source="64" target="68">
                    <mxGeometry relative="1" as="geometry"/>
                </mxCell>
                <mxCell id="64" value="即在try、catch Exception和catch any三个分支下&lt;b&gt;分别都添加了finally的内容&lt;/b&gt;" style="rounded=0;whiteSpace=wrap;html=1;fillColor=#ffe6cc;strokeColor=#d79b00;comic=1;sketch=1;" vertex="1" parent="1">
                    <mxGeometry x="21" y="1876" width="209" height="44" as="geometry"/>
                </mxCell>
                <mxCell id="66" value="" style="rounded=0;whiteSpace=wrap;html=1;fillColor=none;strokeColor=#b85450;comic=0;align=left;sketch=0;" vertex="1" parent="1">
                    <mxGeometry x="270" y="2232" width="340" height="88" as="geometry"/>
                </mxCell>
                <mxCell id="67" value="&lt;font color=&quot;#6262fc&quot;&gt;&lt;span style=&quot;font-size: 10px&quot;&gt;异常表&lt;/span&gt;&lt;/font&gt;" style="rounded=0;whiteSpace=wrap;html=1;fillColor=none;strokeColor=none;comic=1;align=left;sketch=1;" vertex="1" parent="1">
                    <mxGeometry x="617.5" y="2250" width="40" height="20" as="geometry"/>
                </mxCell>
                <mxCell id="68" value="" style="rounded=0;whiteSpace=wrap;html=1;fillColor=#dae8fc;strokeColor=#6c8ebf;comic=1;" vertex="1" parent="1">
                    <mxGeometry x="21" y="1948" width="209" height="232" as="geometry"/>
                </mxCell>
                <mxCell id="73" style="sketch=1;html=1;exitX=0.5;exitY=1;exitDx=0;exitDy=0;entryX=0.5;entryY=0;entryDx=0;entryDy=0;fontSize=11;" edge="1" parent="1" source="69" target="70">
                    <mxGeometry relative="1" as="geometry"/>
                </mxCell>
                <mxCell id="69" value="开始" style="rounded=0;whiteSpace=wrap;html=1;comic=1;fillColor=#f8cecc;strokeColor=#b85450;" vertex="1" parent="1">
                    <mxGeometry x="97.75" y="1960" width="60" height="30" as="geometry"/>
                </mxCell>
                <mxCell id="82" style="edgeStyle=none;sketch=1;html=1;exitX=1;exitY=0.5;exitDx=0;exitDy=0;entryX=0.5;entryY=0;entryDx=0;entryDy=0;fontSize=11;" edge="1" parent="1" source="70" target="72">
                    <mxGeometry relative="1" as="geometry"/>
                </mxCell>
                <mxCell id="70" value="try" style="rounded=0;whiteSpace=wrap;html=1;comic=1;" vertex="1" parent="1">
                    <mxGeometry x="30" y="2019" width="50" height="31" as="geometry"/>
                </mxCell>
                <mxCell id="85" value="异常" style="edgeStyle=none;sketch=1;html=1;exitX=1;exitY=0.5;exitDx=0;exitDy=0;fontSize=11;entryX=0;entryY=0.5;entryDx=0;entryDy=0;" edge="1" parent="1" source="71" target="72">
                    <mxGeometry relative="1" as="geometry">
                        <mxPoint x="170" y="2100" as="targetPoint"/>
                    </mxGeometry>
                </mxCell>
                <mxCell id="71" value="catch Exception" style="rounded=0;whiteSpace=wrap;html=1;comic=1;" vertex="1" parent="1">
                    <mxGeometry x="65.5" y="2099.5" width="64.5" height="31" as="geometry"/>
                </mxCell>
                <mxCell id="76" value="finally" style="rounded=0;whiteSpace=wrap;html=1;comic=1;fillColor=#ffe6cc;strokeColor=#d79b00;" vertex="1" parent="1">
                    <mxGeometry x="30" y="2048.5" width="50" height="31" as="geometry"/>
                </mxCell>
                <mxCell id="78" value="finally" style="rounded=0;whiteSpace=wrap;html=1;comic=1;fillColor=#ffe6cc;strokeColor=#d79b00;" vertex="1" parent="1">
                    <mxGeometry x="65.5" y="2130.5" width="64.5" height="31" as="geometry"/>
                </mxCell>
                <mxCell id="72" value="catch any" style="rounded=0;whiteSpace=wrap;html=1;comic=1;" vertex="1" parent="1">
                    <mxGeometry x="170" y="2080" width="44.5" height="31" as="geometry"/>
                </mxCell>
                <mxCell id="79" value="finally" style="rounded=0;whiteSpace=wrap;html=1;comic=1;fillColor=#ffe6cc;strokeColor=#d79b00;" vertex="1" parent="1">
                    <mxGeometry x="170" y="2111" width="44.5" height="31" as="geometry"/>
                </mxCell>
                <mxCell id="80" value="throw" style="rounded=0;whiteSpace=wrap;html=1;comic=1;fillColor=#f8cecc;strokeColor=#b85450;" vertex="1" parent="1">
                    <mxGeometry x="170" y="2140.5" width="44.5" height="20.5" as="geometry"/>
                </mxCell>
                <mxCell id="81" value="出现异常" style="edgeStyle=none;sketch=1;html=1;exitX=1;exitY=0.5;exitDx=0;exitDy=0;entryX=0.5;entryY=0;entryDx=0;entryDy=0;fontSize=11;" edge="1" parent="1" source="70" target="71">
                    <mxGeometry x="-0.3216" y="25" relative="1" as="geometry">
                        <mxPoint as="offset"/>
                    </mxGeometry>
                </mxCell>
                <mxCell id="90" style="edgeStyle=none;sketch=1;html=1;exitX=1;exitY=0.5;exitDx=0;exitDy=0;entryX=0;entryY=0.5;entryDx=0;entryDy=0;fontSize=11;" edge="1" parent="1" source="87" target="89">
                    <mxGeometry relative="1" as="geometry"/>
                </mxCell>
                <mxCell id="87" value="finally-return" style="rounded=0;whiteSpace=wrap;html=1;fillColor=#ffe6cc;strokeColor=#d79b00;comic=1;" vertex="1" parent="1">
                    <mxGeometry x="40" y="2450" width="90" height="30" as="geometry"/>
                </mxCell>
                <mxCell id="92" style="edgeStyle=none;sketch=1;html=1;exitX=1;exitY=0.5;exitDx=0;exitDy=0;entryX=0;entryY=0.5;entryDx=0;entryDy=0;fontSize=11;" edge="1" parent="1" source="89" target="91">
                    <mxGeometry relative="1" as="geometry"/>
                </mxCell>
                <mxCell id="89" value="&lt;pre style=&quot;background-color: rgb(255 , 255 , 255) ; color: rgb(8 , 8 , 8) ; font-family: &amp;#34;consolas&amp;#34; , monospace ; font-size: 11px&quot;&gt;&lt;pre style=&quot;font-family: &amp;#34;consolas&amp;#34; , monospace&quot;&gt;&lt;span style=&quot;color: #0033b3&quot;&gt;public class &lt;/span&gt;&lt;span style=&quot;color: #066555&quot;&gt;Main &lt;/span&gt;{&lt;br&gt;&lt;br&gt;    &lt;span style=&quot;color: #0033b3&quot;&gt;static int &lt;/span&gt;&lt;span style=&quot;color: #795e26&quot;&gt;test&lt;/span&gt;() {&lt;br&gt;        &lt;span style=&quot;color: #0033b3&quot;&gt;try &lt;/span&gt;{&lt;br&gt;            &lt;span style=&quot;color: #0033b3&quot;&gt;return &lt;/span&gt;&lt;span style=&quot;color: #1750eb&quot;&gt;10&lt;/span&gt;;&lt;br&gt;        } &lt;span style=&quot;color: #0033b3&quot;&gt;finally &lt;/span&gt;{&lt;br&gt;            &lt;span style=&quot;color: #0033b3&quot;&gt;return &lt;/span&gt;&lt;span style=&quot;color: #1750eb&quot;&gt;20&lt;/span&gt;;&lt;br&gt;        }&lt;br&gt;    }&lt;br&gt;&lt;br&gt;    &lt;span style=&quot;color: #0033b3&quot;&gt;public static void &lt;/span&gt;&lt;span style=&quot;color: #795e26&quot;&gt;main&lt;/span&gt;(&lt;span style=&quot;color: #066555&quot;&gt;String&lt;/span&gt;[] args){&lt;br&gt;        &lt;span style=&quot;color: #066555&quot;&gt;System&lt;/span&gt;.&lt;span style=&quot;color: #871094 ; font-style: italic&quot;&gt;out&lt;/span&gt;.&lt;span style=&quot;color: #795e26&quot;&gt;println&lt;/span&gt;(&lt;span style=&quot;font-style: italic&quot;&gt;test&lt;/span&gt;());&lt;br&gt;    }&lt;br&gt;}&lt;/pre&gt;&lt;/pre&gt;" style="rounded=0;whiteSpace=wrap;html=1;fillColor=#ffe6cc;strokeColor=#d79b00;comic=1;align=left;" vertex="1" parent="1">
                    <mxGeometry x="174" y="2370" width="265" height="190" as="geometry"/>
                </mxCell>
                <mxCell id="91" value="" style="shape=image;imageAspect=0;aspect=fixed;verticalLabelPosition=bottom;verticalAlign=top;comic=1;sketch=1;fontSize=11;strokeColor=default;strokeWidth=1;fillColor=default;image=https://codereaper-image-bed.oss-cn-shenzhen.aliyuncs.com/img/image-20220826054837903.png;imageBorder=default;" vertex="1" parent="1">
                    <mxGeometry x="495" y="2370" width="246.93" height="270" as="geometry"/>
                </mxCell>
                <mxCell id="93" value="" style="rounded=0;whiteSpace=wrap;html=1;fillColor=none;strokeColor=#b85450;comic=0;align=left;sketch=0;" vertex="1" parent="1">
                    <mxGeometry x="530" y="2588" width="180" height="51" as="geometry"/>
                </mxCell>
                <mxCell id="94" value="&lt;font color=&quot;#6262fc&quot;&gt;&lt;span style=&quot;font-size: 10px&quot;&gt;异常表&lt;/span&gt;&lt;/font&gt;" style="rounded=0;whiteSpace=wrap;html=1;fillColor=none;strokeColor=none;comic=1;align=left;sketch=1;" vertex="1" parent="1">
                    <mxGeometry x="710" y="2585" width="40" height="20" as="geometry"/>
                </mxCell>
                <mxCell id="95" value="" style="rounded=0;whiteSpace=wrap;html=1;fillColor=none;strokeColor=#b85450;comic=0;align=left;sketch=0;strokeWidth=1;" vertex="1" parent="1">
                    <mxGeometry x="553.93" y="2461.5" width="140" height="68.5" as="geometry"/>
                </mxCell>
                <mxCell id="96" value="&lt;font color=&quot;#6262fc&quot;&gt;&lt;span style=&quot;font-size: 10px&quot;&gt;try块&lt;/span&gt;&lt;/font&gt;" style="rounded=0;whiteSpace=wrap;html=1;fillColor=none;strokeColor=none;comic=1;align=left;sketch=1;" vertex="1" parent="1">
                    <mxGeometry x="701.9300000000001" y="2464.5" width="40" height="20" as="geometry"/>
                </mxCell>
                <mxCell id="97" value="" style="rounded=0;whiteSpace=wrap;html=1;fillColor=none;strokeColor=#6c8ebf;comic=0;align=left;sketch=0;" vertex="1" parent="1">
                    <mxGeometry x="553.93" y="2498" width="140" height="32" as="geometry"/>
                </mxCell>
                <mxCell id="98" value="&lt;font color=&quot;#6262fc&quot;&gt;&lt;span style=&quot;font-size: 10px&quot;&gt;finally&lt;/span&gt;&lt;/font&gt;" style="rounded=0;whiteSpace=wrap;html=1;fillColor=none;strokeColor=none;comic=1;align=left;sketch=1;" vertex="1" parent="1">
                    <mxGeometry x="650.0000000000001" y="2510" width="30" height="20" as="geometry"/>
                </mxCell>
                <mxCell id="99" value="" style="rounded=0;whiteSpace=wrap;html=1;fillColor=none;strokeColor=#b85450;comic=0;align=left;sketch=0;strokeWidth=1;" vertex="1" parent="1">
                    <mxGeometry x="553.93" y="2534" width="140" height="51" as="geometry"/>
                </mxCell>
                <mxCell id="100" value="" style="rounded=0;whiteSpace=wrap;html=1;fillColor=none;strokeColor=#6c8ebf;comic=0;align=left;sketch=0;" vertex="1" parent="1">
                    <mxGeometry x="553.93" y="2553" width="140" height="32" as="geometry"/>
                </mxCell>
                <mxCell id="101" value="&lt;font color=&quot;#6262fc&quot;&gt;&lt;span style=&quot;font-size: 10px&quot;&gt;finally&lt;/span&gt;&lt;/font&gt;" style="rounded=0;whiteSpace=wrap;html=1;fillColor=none;strokeColor=none;comic=1;align=left;sketch=1;" vertex="1" parent="1">
                    <mxGeometry x="650.0000000000001" y="2565" width="30" height="20" as="geometry"/>
                </mxCell>
                <mxCell id="102" value="&lt;font color=&quot;#6262fc&quot;&gt;&lt;span style=&quot;font-size: 10px&quot;&gt;catch any&lt;/span&gt;&lt;/font&gt;" style="rounded=0;whiteSpace=wrap;html=1;fillColor=none;strokeColor=none;comic=1;align=left;sketch=1;" vertex="1" parent="1">
                    <mxGeometry x="695" y="2534" width="50" height="20" as="geometry"/>
                </mxCell>
                <mxCell id="103" value="此时catch any块中相比上面的情况少了throw这个语句，因为&lt;b&gt;提前使用return返回了&lt;/b&gt;，所以&lt;b&gt;将抛出异常给吞掉了&lt;/b&gt;！" style="rounded=0;whiteSpace=wrap;html=1;fillColor=#ffe6cc;strokeColor=#d79b00;comic=1;sketch=1;" vertex="1" parent="1">
                    <mxGeometry x="144.5" y="2587" width="310" height="48.5" as="geometry"/>
                </mxCell>
                <mxCell id="104" value="因此不要在finally块中进行返回" style="rounded=0;whiteSpace=wrap;html=1;fillColor=#dae8fc;strokeColor=#6c8ebf;comic=1;sketch=1;" vertex="1" parent="1">
                    <mxGeometry x="206.75" y="2650" width="185.5" height="28.5" as="geometry"/>
                </mxCell>
                <mxCell id="109" style="edgeStyle=none;sketch=1;html=1;exitX=1;exitY=0.5;exitDx=0;exitDy=0;entryX=0;entryY=0.5;entryDx=0;entryDy=0;fontSize=11;" edge="1" parent="1" source="105" target="108">
                    <mxGeometry relative="1" as="geometry"/>
                </mxCell>
                <mxCell id="105" value="finally对返回值的影响" style="rounded=0;whiteSpace=wrap;html=1;fillColor=#ffe6cc;strokeColor=#d79b00;comic=1;" vertex="1" parent="1">
                    <mxGeometry x="40" y="2785" width="90" height="40" as="geometry"/>
                </mxCell>
                <mxCell id="107" value="如果在finally中写上return语句，那么try中的return将不被执行" style="rounded=0;whiteSpace=wrap;html=1;fillColor=#ffe6cc;strokeColor=#d79b00;comic=1;sketch=1;" vertex="1" parent="1">
                    <mxGeometry x="495" y="2650" width="175.5" height="50" as="geometry"/>
                </mxCell>
                <mxCell id="111" value="字节码&lt;br&gt;信息" style="edgeStyle=orthogonalEdgeStyle;sketch=1;html=1;exitX=1;exitY=0.5;exitDx=0;exitDy=0;entryX=0.5;entryY=0;entryDx=0;entryDy=0;fontSize=11;" edge="1" parent="1" source="108" target="110">
                    <mxGeometry relative="1" as="geometry"/>
                </mxCell>
                <mxCell id="108" value="&lt;pre style=&quot;background-color: rgb(255 , 255 , 255) ; color: rgb(8 , 8 , 8) ; font-family: &amp;#34;consolas&amp;#34; , monospace ; font-size: 11px&quot;&gt;&lt;pre style=&quot;font-family: &amp;#34;consolas&amp;#34; , monospace&quot;&gt;&lt;pre style=&quot;font-family: &amp;#34;consolas&amp;#34; , monospace&quot;&gt;&lt;span style=&quot;color: #0033b3&quot;&gt;public class &lt;/span&gt;&lt;span style=&quot;color: #066555&quot;&gt;Main &lt;/span&gt;{&lt;br&gt;&lt;br&gt;    &lt;span style=&quot;color: #0033b3&quot;&gt;static int &lt;/span&gt;&lt;span style=&quot;color: #795e26&quot;&gt;test&lt;/span&gt;() {&lt;br&gt;        &lt;span style=&quot;color: #0033b3&quot;&gt;int &lt;/span&gt;i = &lt;span style=&quot;color: #1750eb&quot;&gt;10&lt;/span&gt;;&lt;br&gt;        &lt;span style=&quot;color: #0033b3&quot;&gt;try &lt;/span&gt;{&lt;br&gt;            &lt;span style=&quot;color: #0033b3&quot;&gt;return &lt;/span&gt;i;&lt;br&gt;        } &lt;span style=&quot;color: #0033b3&quot;&gt;finally &lt;/span&gt;{&lt;br&gt;            i = &lt;span style=&quot;color: #1750eb&quot;&gt;20&lt;/span&gt;;&lt;br&gt;        }&lt;br&gt;    }&lt;br&gt;&lt;br&gt;    &lt;span style=&quot;color: #0033b3&quot;&gt;public static void &lt;/span&gt;&lt;span style=&quot;color: #795e26&quot;&gt;main&lt;/span&gt;(&lt;span style=&quot;color: #066555&quot;&gt;String&lt;/span&gt;[] args){&lt;br&gt;        &lt;span style=&quot;color: #066555&quot;&gt;System&lt;/span&gt;.&lt;span style=&quot;color: #871094 ; font-style: italic&quot;&gt;out&lt;/span&gt;.&lt;span style=&quot;color: #795e26&quot;&gt;println&lt;/span&gt;(&lt;span style=&quot;font-style: italic&quot;&gt;test&lt;/span&gt;());&lt;br&gt;    }&lt;br&gt;}&lt;/pre&gt;&lt;/pre&gt;&lt;/pre&gt;" style="rounded=0;whiteSpace=wrap;html=1;fillColor=#ffe6cc;strokeColor=#d79b00;comic=1;align=left;" vertex="1" parent="1">
                    <mxGeometry x="174" y="2705" width="265" height="200" as="geometry"/>
                </mxCell>
                <mxCell id="110" value="" style="shape=image;imageAspect=0;aspect=fixed;verticalLabelPosition=bottom;verticalAlign=top;comic=1;sketch=1;fontSize=11;strokeColor=default;strokeWidth=1;fillColor=default;image=https://codereaper-image-bed.oss-cn-shenzhen.aliyuncs.com/img/image-20220826055920852.png;imageBorder=default;" vertex="1" parent="1">
                    <mxGeometry x="380.3" y="2920" width="269.7" height="403" as="geometry"/>
                </mxCell>
                <mxCell id="112" value="" style="rounded=0;whiteSpace=wrap;html=1;fillColor=none;strokeColor=#b85450;comic=0;align=left;sketch=0;" vertex="1" parent="1">
                    <mxGeometry x="422" y="3265" width="180" height="57" as="geometry"/>
                </mxCell>
                <mxCell id="113" value="&lt;font color=&quot;#6262fc&quot;&gt;&lt;span style=&quot;font-size: 10px&quot;&gt;异常表&lt;/span&gt;&lt;/font&gt;" style="rounded=0;whiteSpace=wrap;html=1;fillColor=none;strokeColor=none;comic=1;align=left;sketch=1;" vertex="1" parent="1">
                    <mxGeometry x="603.93" y="3270" width="40" height="20" as="geometry"/>
                </mxCell>
                <mxCell id="114" value="" style="rounded=0;whiteSpace=wrap;html=1;fillColor=none;strokeColor=#b85450;comic=0;align=left;sketch=0;strokeWidth=1;" vertex="1" parent="1">
                    <mxGeometry x="423" y="3053" width="154" height="114" as="geometry"/>
                </mxCell>
                <mxCell id="115" value="&lt;font color=&quot;#6262fc&quot;&gt;&lt;span style=&quot;font-size: 10px&quot;&gt;try块&lt;/span&gt;&lt;/font&gt;" style="rounded=0;whiteSpace=wrap;html=1;fillColor=none;strokeColor=none;comic=1;align=left;sketch=1;" vertex="1" parent="1">
                    <mxGeometry x="578" y="3053" width="40" height="20" as="geometry"/>
                </mxCell>
                <mxCell id="116" value="" style="rounded=0;whiteSpace=wrap;html=1;fillColor=none;strokeColor=#6c8ebf;comic=0;align=left;sketch=0;" vertex="1" parent="1">
                    <mxGeometry x="423" y="3072" width="154" height="95" as="geometry"/>
                </mxCell>
                <mxCell id="117" value="&lt;font color=&quot;#6262fc&quot;&gt;&lt;span style=&quot;font-size: 10px&quot;&gt;finally&lt;/span&gt;&lt;/font&gt;" style="rounded=0;whiteSpace=wrap;html=1;fillColor=none;strokeColor=none;comic=1;align=left;sketch=1;" vertex="1" parent="1">
                    <mxGeometry x="583.0000000000002" y="3128.5" width="30" height="20" as="geometry"/>
                </mxCell>
                <mxCell id="122" value="&lt;font color=&quot;#6262fc&quot;&gt;&lt;span style=&quot;font-size: 10px&quot;&gt;tmp = i&lt;/span&gt;&lt;/font&gt;" style="rounded=0;whiteSpace=wrap;html=1;fillColor=none;strokeColor=none;comic=1;align=left;sketch=1;" vertex="1" parent="1">
                    <mxGeometry x="527.5" y="3073" width="42.5" height="20" as="geometry"/>
                </mxCell>
                <mxCell id="123" value="&lt;font color=&quot;#6262fc&quot;&gt;&lt;span style=&quot;font-size: 10px&quot;&gt;i = 20&lt;/span&gt;&lt;/font&gt;" style="rounded=0;whiteSpace=wrap;html=1;fillColor=none;strokeColor=none;comic=1;align=left;sketch=1;" vertex="1" parent="1">
                    <mxGeometry x="530" y="3112.5" width="42.5" height="20" as="geometry"/>
                </mxCell>
                <mxCell id="127" value="&lt;font color=&quot;#6262fc&quot;&gt;&lt;span style=&quot;font-size: 10px&quot;&gt;return tmp&lt;/span&gt;&lt;/font&gt;" style="rounded=0;whiteSpace=wrap;html=1;fillColor=none;strokeColor=none;comic=1;align=left;sketch=1;" vertex="1" parent="1">
                    <mxGeometry x="527.5" y="3150" width="52.5" height="20" as="geometry"/>
                </mxCell>
                <mxCell id="132" value="" style="group" vertex="1" connectable="0" parent="1">
                    <mxGeometry x="260" y="2923" width="106.06999999999994" height="160.25" as="geometry"/>
                </mxCell>
                <mxCell id="131" value="" style="rounded=0;whiteSpace=wrap;html=1;comic=1;fillColor=#dae8fc;strokeColor=#6c8ebf;" vertex="1" parent="132">
                    <mxGeometry width="106.07" height="160.25" as="geometry"/>
                </mxCell>
                <mxCell id="120" value="原返回值放到临时变量" style="rounded=0;whiteSpace=wrap;html=1;comic=1;" vertex="1" parent="132">
                    <mxGeometry x="13.279999999999973" y="13.25" width="79.5" height="40" as="geometry"/>
                </mxCell>
                <mxCell id="121" value="给变量赋值" style="rounded=0;whiteSpace=wrap;html=1;comic=1;" vertex="1" parent="132">
                    <mxGeometry x="10.779999999999973" y="74.25" width="84.5" height="28.5" as="geometry"/>
                </mxCell>
                <mxCell id="128" style="edgeStyle=orthogonalEdgeStyle;sketch=1;html=1;exitX=0.5;exitY=1;exitDx=0;exitDy=0;entryX=0.5;entryY=0;entryDx=0;entryDy=0;fontSize=11;" edge="1" parent="132" source="120" target="121">
                    <mxGeometry relative="1" as="geometry"/>
                </mxCell>
                <mxCell id="129" value="返回临时变量" style="rounded=0;whiteSpace=wrap;html=1;comic=1;" vertex="1" parent="132">
                    <mxGeometry x="10.779999999999973" y="120.25" width="84.5" height="28.5" as="geometry"/>
                </mxCell>
                <mxCell id="130" style="edgeStyle=orthogonalEdgeStyle;sketch=1;html=1;exitX=0.5;exitY=1;exitDx=0;exitDy=0;entryX=0.5;entryY=0;entryDx=0;entryDy=0;fontSize=11;" edge="1" parent="132" source="121" target="129">
                    <mxGeometry relative="1" as="geometry"/>
                </mxCell>
                <mxCell id="136" value="结论：在finally中改变返回变量的值是&lt;b&gt;不会改变try中的返回值&lt;/b&gt;的" style="rounded=0;whiteSpace=wrap;html=1;fillColor=#ffe6cc;strokeColor=#d79b00;comic=1;sketch=1;" vertex="1" parent="1">
                    <mxGeometry x="50" y="3040" width="190" height="43.25" as="geometry"/>
                </mxCell>
                <mxCell id="137" value="" style="rounded=0;whiteSpace=wrap;html=1;fillColor=none;strokeColor=#b85450;comic=0;align=left;sketch=0;strokeWidth=1;" vertex="1" parent="1">
                    <mxGeometry x="423" y="3170" width="154" height="90" as="geometry"/>
                </mxCell>
                <mxCell id="138" value="&lt;font color=&quot;#6262fc&quot;&gt;&lt;span style=&quot;font-size: 10px&quot;&gt;catch any&lt;/span&gt;&lt;/font&gt;" style="rounded=0;whiteSpace=wrap;html=1;fillColor=none;strokeColor=none;comic=1;align=left;sketch=1;" vertex="1" parent="1">
                    <mxGeometry x="580" y="3180" width="50" height="20" as="geometry"/>
                </mxCell>
            </root>
        </mxGraphModel>
    </diagram>
</mxfile>